<?xml version="1.0" encoding="utf-8"?>
<!-- Generator: Adobe Illustrator 14.0.0, SVG Export Plug-In . SVG Version: 6.00 Build 43363)  -->
<!DOCTYPE svg PUBLIC "-//W3C//DTD SVG 1.1//EN" "http://www.w3.org/Graphics/SVG/1.1/DTD/svg11.dtd">
<svg version="1.1" id="Layer_1" xmlns="http://www.w3.org/2000/svg" xmlns:xlink="http://www.w3.org/1999/xlink" x="0px" y="0px"
	 width="50px" height="50px" viewBox="0 0 50 50" enable-background="new 0 0 50 50" xml:space="preserve">
<g>
	<path d="M12.476,17.245c-2.263,0-4.15,0.792-5.667,2.376c-1.522,1.585-2.278,3.531-2.278,5.84c0,2.172,0.769,4.084,2.312,5.738
		c1.537,1.651,3.509,2.614,5.907,2.886c0,3.666-2.786,6.857-8.355,9.574l2.651,4.888c9.821-4.979,14.732-11.883,14.732-20.709
		c0-2.942-0.917-5.444-2.749-7.503C17.196,18.274,15.013,17.245,12.476,17.245z M8.037,25.502c-1.234,0-2.234-1.001-2.234-2.235
		s1-2.235,2.234-2.235s2.236,1.001,2.236,2.235S9.271,25.502,8.037,25.502z M13.691,32.104c-0.748,0-1.354-0.607-1.354-1.355
		s0.606-1.355,1.354-1.355c0.749,0,1.355,0.607,1.355,1.355S14.44,32.104,13.691,32.104z M17.034,25.502
		c-1.235,0-2.235-1.001-2.235-2.235s1-2.235,2.235-2.235c1.233,0,2.235,1.001,2.235,2.235S18.268,25.502,17.034,25.502z"/>
	<path d="M43.912,20.334c-1.854-2.06-4.05-3.089-6.581-3.089c-2.223,0-4.086,0.792-5.605,2.376c-1.519,1.585-2.272,3.531-2.272,5.84
		c0,2.172,0.769,4.084,2.307,5.738c1.54,1.651,3.483,2.614,5.839,2.886c0,3.666-2.761,6.857-8.284,9.574l2.648,4.888
		c9.821-4.979,14.735-11.883,14.735-20.709C46.698,24.896,45.77,22.394,43.912,20.334z M33.163,25.502
		c-1.234,0-2.234-1.001-2.234-2.235s1-2.235,2.234-2.235s2.236,1.001,2.236,2.235S34.397,25.502,33.163,25.502z M38.817,32.104
		c-0.748,0-1.354-0.607-1.354-1.355s0.606-1.355,1.354-1.355c0.749,0,1.355,0.607,1.355,1.355S39.566,32.104,38.817,32.104z
		 M42.16,25.502c-1.235,0-2.235-1.001-2.235-2.235s1-2.235,2.235-2.235c1.233,0,2.235,1.001,2.235,2.235S43.394,25.502,42.16,25.502
		z"/>
</g>
</svg>
