<?xml version="1.0" encoding="utf-8"?>
<!-- Generator: Adobe Illustrator 14.0.0, SVG Export Plug-In . SVG Version: 6.00 Build 43363)  -->
<!DOCTYPE svg PUBLIC "-//W3C//DTD SVG 1.1//EN" "http://www.w3.org/Graphics/SVG/1.1/DTD/svg11.dtd">
<svg version="1.1" id="Layer_1" xmlns="http://www.w3.org/2000/svg" xmlns:xlink="http://www.w3.org/1999/xlink" x="0px" y="0px"
	 width="50px" height="50px" viewBox="0 0 50 50" enable-background="new 0 0 50 50" xml:space="preserve">
<path d="M25.666,3.702c-3.509,0-6.811,0.864-9.729,2.367C22.801,9.604,27.504,16.746,27.504,25s-4.703,15.395-11.567,18.931
	c2.918,1.503,6.22,2.367,9.729,2.367c11.762,0,21.297-9.536,21.297-21.298S37.428,3.702,25.666,3.702z M30.444,23.539
	c-1.69,0-3.062-1.373-3.062-3.064c0-1.692,1.372-3.064,3.062-3.064c1.692,0,3.064,1.372,3.064,3.064
	C33.509,22.166,32.137,23.539,30.444,23.539z M38.275,32.589c-0.97,0-1.755-0.786-1.755-1.754s0.785-1.753,1.755-1.753
	s1.754,0.785,1.754,1.753S39.245,32.589,38.275,32.589z M43.093,23.539c-1.691,0-3.063-1.373-3.063-3.064
	c0-1.692,1.372-3.064,3.063-3.064c1.692,0,3.064,1.372,3.064,3.064C46.157,22.166,44.785,23.539,43.093,23.539z"/>
</svg>
