<?xml version="1.0" encoding="utf-8"?>
<!-- Generator: Adobe Illustrator 14.0.0, SVG Export Plug-In . SVG Version: 6.00 Build 43363)  -->
<!DOCTYPE svg PUBLIC "-//W3C//DTD SVG 1.1//EN" "http://www.w3.org/Graphics/SVG/1.1/DTD/svg11.dtd">
<svg version="1.1" id="Layer_1" xmlns="http://www.w3.org/2000/svg" xmlns:xlink="http://www.w3.org/1999/xlink" x="0px" y="0px"
	 width="50px" height="50px" viewBox="0 0 50 50" enable-background="new 0 0 50 50" xml:space="preserve">
<path d="M25.734,0.611c-9.328,0-16.89,7.562-16.89,16.89c0,16.669,16.879,13.791,16.89,33.153c0-19.263,16.89-16.979,16.89-33.153
	C42.624,8.173,35.063,0.611,25.734,0.611z M17.342,17.417c-2.303,0-4.171-1.868-4.171-4.17c0-2.303,1.868-4.171,4.171-4.171
	c2.303,0,4.17,1.868,4.17,4.171C21.512,15.55,19.645,17.417,17.342,17.417z M27.891,29.732c-1.396,0-2.528-1.132-2.528-2.528
	s1.131-2.527,2.528-2.527s2.527,1.131,2.527,2.527S29.287,29.732,27.891,29.732z M34.126,17.417c-2.304,0-4.171-1.868-4.171-4.17
	c0-2.303,1.867-4.171,4.171-4.171c2.303,0,4.171,1.868,4.171,4.171C38.297,15.55,36.429,17.417,34.126,17.417z"/>
</svg>
