<?xml version="1.0" encoding="utf-8"?>
<!-- Generator: Adobe Illustrator 14.0.0, SVG Export Plug-In . SVG Version: 6.00 Build 43363)  -->
<!DOCTYPE svg PUBLIC "-//W3C//DTD SVG 1.1//EN" "http://www.w3.org/Graphics/SVG/1.1/DTD/svg11.dtd">
<svg version="1.1" id="Layer_1" xmlns="http://www.w3.org/2000/svg" xmlns:xlink="http://www.w3.org/1999/xlink" x="0px" y="0px"
	 width="100px" height="100px" viewBox="0 0 100 100" enable-background="new 0 0 100 100" xml:space="preserve">
<path d="M50.724,3.317c-25.127,0-45.497,22.594-45.497,50.465V96.1l4.053-4.052l3.358,3.357l3.576-3.576l4.371,4.371l3.378-3.378
	l4.321,4.321l3.974-3.973l3.923,3.923l4.371-4.371l4.595,4.596l4.073-4.074L53.976,98l4.967-4.967l3.861,3.862l5.266-5.266
	l5.265,5.266l4.967-4.967l3.974,3.974l4.271-4.272l4.271,4.272l2.881-2.881l2.523,3.078V53.782
	C96.222,25.911,75.853,3.317,50.724,3.317z M32.207,43.252c-5.157,0-9.337-4.181-9.337-9.338s4.18-9.338,9.337-9.338
	c5.158,0,9.338,4.181,9.338,9.338S37.365,43.252,32.207,43.252z M56.068,70.828c-2.951,0-5.344-2.393-5.344-5.345
	c0-2.951,2.393-5.344,5.344-5.344s5.345,2.393,5.345,5.344C61.413,68.436,59.02,70.828,56.068,70.828z M70.751,43.252
	c-5.157,0-9.338-4.181-9.338-9.338s4.181-9.338,9.338-9.338s9.339,4.181,9.339,9.338S75.908,43.252,70.751,43.252z"/>
</svg>
