<?xml version="1.0" encoding="utf-8"?>
<!-- Generator: Adobe Illustrator 14.0.0, SVG Export Plug-In . SVG Version: 6.00 Build 43363)  -->
<!DOCTYPE svg PUBLIC "-//W3C//DTD SVG 1.1//EN" "http://www.w3.org/Graphics/SVG/1.1/DTD/svg11.dtd">
<svg version="1.1" id="Layer_1" xmlns="http://www.w3.org/2000/svg" xmlns:xlink="http://www.w3.org/1999/xlink" x="0px" y="0px"
	 width="50px" height="50px" viewBox="0 0 50 50" enable-background="new 0 0 50 50" xml:space="preserve">
<g>
	<path d="M37.834,16.129c0-3.666,2.761-6.857,8.283-9.573l-2.579-4.889c-9.868,4.979-14.803,11.883-14.803,20.71
		c0,2.943,0.928,5.443,2.784,7.504c1.855,2.059,4.051,3.089,6.586,3.089c2.264,0,4.141-0.792,5.635-2.376
		c1.494-1.585,2.241-3.533,2.241-5.84c0-2.174-0.769-4.086-2.309-5.738C42.134,17.363,40.187,16.401,37.834,16.129z M32.689,24.935
		c-1.234,0-2.234-1.001-2.234-2.235s1-2.235,2.234-2.235s2.236,1.001,2.236,2.235S33.924,24.935,32.689,24.935z M38.344,31.536
		c-0.748,0-1.354-0.607-1.354-1.355c0-0.749,0.606-1.355,1.354-1.355c0.749,0,1.355,0.606,1.355,1.355
		C39.699,30.929,39.093,31.536,38.344,31.536z M41.687,24.935c-1.235,0-2.235-1.001-2.235-2.235s1-2.235,2.235-2.235
		c1.233,0,2.235,1.001,2.235,2.235S42.92,24.935,41.687,24.935z"/>
	<path d="M21.266,6.556l-2.649-4.889C8.794,6.646,3.882,13.549,3.882,22.377c0,2.943,0.917,5.443,2.75,7.504
		c1.833,2.059,4.018,3.089,6.553,3.089c2.264,0,4.154-0.792,5.669-2.376c1.516-1.585,2.276-3.533,2.276-5.84
		c0-2.174-0.771-4.086-2.31-5.738c-1.538-1.652-3.508-2.614-5.907-2.887C12.914,12.463,15.697,9.272,21.266,6.556z M7.866,24.935
		c-1.234,0-2.235-1.001-2.235-2.235s1.001-2.235,2.235-2.235s2.235,1.001,2.235,2.235S9.1,24.935,7.866,24.935z M16.862,20.464
		c1.234,0,2.235,1.001,2.235,2.235s-1.001,2.235-2.235,2.235c-1.235,0-2.236-1.001-2.236-2.235S15.627,20.464,16.862,20.464z
		 M13.52,28.825c0.749,0,1.354,0.606,1.354,1.355c0,0.748-0.606,1.355-1.354,1.355s-1.355-0.607-1.355-1.355
		C12.165,29.432,12.771,28.825,13.52,28.825z"/>
</g>
</svg>
